<svg width="28" height="30" viewBox="0 0 38 45" fill="none" xmlns="http://www.w3.org/2000/svg">
<path d="M31.5 32H4.2C1.9 32 0 30.1 0 27.7V10.1C0 8.4 1 6.8 2.6 6.1L16.3 0.3C17.3 -0.1 18.5 -0.1 19.5 0.3L33.2 6.1C34.8 6.8 35.8 8.3 35.8 10.1V27.7C35.7 30.1 33.8 32 31.5 32ZM17.8 2.7C17.6 2.7 17.5 2.7 17.3 2.8L3.6 8.7C3.1 8.9 2.7 9.5 2.7 10.1V27.7C2.7 28.6 3.3 29.2 4.1 29.2H31.4C32.2 29.2 32.8 28.5 32.8 27.7V10.1C32.8 9.5 32.4 8.9 31.9 8.7L18.3 2.9C18.2 2.8 18 2.7 17.8 2.7Z" fill="url(#paint0_linear_1311_1051)"/>
<path d="M21.6 9.89998H14C13.2 9.89998 12.6 9.29998 12.6 8.49998C12.6 7.69998 13.2 7.09998 14 7.09998H21.6C22.4 7.09998 23 7.69998 23 8.49998C23 9.29998 22.4 9.89998 21.6 9.89998Z" fill="#007CEF" fill-opacity="0.3"/>
<path d="M24 15.9L24.1 16.2C24.5 17 24.4 17.9 23.8 18.5C24.4 19.1 24.5 20.1 24.1 20.8L23 22.8C22.6 23.4 22 23.8 21.3 23.8C21.2 23.8 21 23.8 20.9 23.8C20.6 24.6 19.9 25.2 19 25.2H16.8C15.9 25.2 15.2 24.6 14.9 23.8C14.8 23.8 14.6 23.8 14.5 23.8C13.8 23.8 13.1 23.4 12.8 22.8L11.7 20.9C11.3 20.1 11.4 19.2 12 18.6C11.4 18 11.3 17 11.7 16.3L11.8 16.1L0 9.69995V27.7C0 30.1 1.9 32 4.1 32H31.4C33.7 32 35.8008 30.1 35.8008 27.7V9.69995L24 15.9Z" fill="url(#paint1_linear_1311_1051)"/>
<path d="M22.3 19.1C22.1 19 22 18.7 22 18.5C22 18.3 22.1 18 22.3 17.8L22.7 17.5C22.9 17.4 22.9 17.1 22.8 16.9L22.6 16.6L21.7 15C21.6 14.9 21.4 14.8 21.3 14.8C21.2 14.8 21.2 14.8 21.1 14.8L20.6 15C20.5 15 20.4 15.1 20.3 15.1C20.1 15.1 20 15.1 19.9 15C19.7 14.9 19.5 14.6 19.5 14.4L19.4 13.9C19.4 13.7 19.2 13.5 18.9 13.5H16.7C16.5 13.5 16.3 13.7 16.2 13.9L16.1 14.4C16.1 14.6 15.9 14.9 15.7 15C15.6 15.1 15.4 15.1 15.3 15.1C15.2 15.1 15.1 15.1 15 15L14.5 14.8C14.4 14.8 14.4 14.8 14.3 14.8C14.1 14.8 14 14.9 13.9 15L12.9 16.7L12.7 17C12.6 17.2 12.6 17.5 12.8 17.6L13.2 17.9C13.4 18 13.5 18.3 13.5 18.6C13.5 18.8 13.4 19.1 13.2 19.3L12.8 19.6C12.6 19.7 12.6 20 12.7 20.2L13.8 22.1C13.9 22.2 14.1 22.3 14.2 22.3C14.3 22.3 14.3 22.3 14.4 22.3L15 22C15.1 22 15.2 21.9 15.3 21.9C15.5 21.9 15.6 21.9 15.7 22C15.9 22.1 16.1 22.4 16.1 22.6L16.2 23.1C16.2 23.3 16.4 23.5 16.7 23.5H18.9C19.1 23.5 19.3 23.3 19.4 23.1L19.5 22.6C19.5 22.4 19.7 22.1 19.9 22C20 22 20.2 22 20.3 22C20.4 22 20.5 22 20.6 22.1L21.1 22.3C21.2 22.3 21.2 22.3 21.3 22.3C21.5 22.3 21.6 22.2 21.7 22.1L22.8 20.2C22.9 20 22.9 19.7 22.7 19.6L22.3 19.1ZM17.8 20.9C16.5 20.9 15.4 19.8 15.4 18.5C15.4 18.3 15.4 18.1 15.5 18C15.7 16.9 16.7 16.1 17.9 16.1C19 16.1 20 16.9 20.2 17.9C20.2 18.1 20.3 18.3 20.3 18.5C20.2 19.8 19.2 20.9 17.8 20.9Z" fill="url(#paint2_linear_1311_1051)"/>
<defs>
<linearGradient id="paint0_linear_1311_1051" x1="17.8268" y1="32" x2="17.8268" y2="0" gradientUnits="userSpaceOnUse">
<stop stop-color="#1EB5FE"/>
<stop offset="0.65" stop-color="#0050E7"/>
</linearGradient>
<linearGradient id="paint1_linear_1311_1051" x1="17.8197" y1="32" x2="17.8197" y2="9.69625" gradientUnits="userSpaceOnUse">
<stop stop-color="#1EB5FE"/>
<stop offset="1" stop-color="#095BFF"/>
</linearGradient>
<linearGradient id="paint2_linear_1311_1051" x1="14.0982" y1="22.1945" x2="21.5404" y2="14.7523" gradientUnits="userSpaceOnUse">
<stop stop-color="#FC5C02"/>
<stop offset="1" stop-color="#FC9202"/>
</linearGradient>
</defs>
</svg>