<svg width="63" height="65" viewBox="0 0 63 65" fill="none" xmlns="http://www.w3.org/2000/svg">
<rect x="8" width="50" height="50" rx="15" fill="url(#paint0_linear_1311_898)"/>
<rect x="14.3367" y="5.40967" width="16.8845" height="16.8846" rx="6.07844" fill="url(#paint1_linear_1311_898)"/>
<rect x="14.3367" y="27.5999" width="37.9902" height="16.8846" rx="4.05229" fill="white" fill-opacity="0.2"/>
<g filter="url(#filter0_d_1311_898)">
<rect x="12.6479" y="29.0017" width="35.5185" height="15.786" rx="4.05229" transform="rotate(-6.36008 12.6479 29.0017)" fill="url(#paint2_linear_1311_898)" shape-rendering="crispEdges"/>
</g>
<rect opacity="0.6" x="15.6855" y="31.6052" width="29.8061" height="8.1186" rx="3.28966" transform="rotate(-6.36008 15.6855 31.6052)" fill="url(#paint3_linear_1311_898)"/>
<rect x="35.3254" y="5.48853" width="16.8845" height="16.8846" rx="6.07844" fill="url(#paint4_linear_1311_898)"/>
<g filter="url(#filter1_d_1311_898)">
<path d="M51.1451 42.1281L45.2355 38.6667C45.0667 38.4979 44.8978 38.5823 44.8134 38.7512C44.729 38.8356 44.729 38.92 44.729 39.0044L45.9953 45.7583C45.9953 45.9271 46.2486 46.096 46.4175 46.0115C46.5019 46.0115 46.5863 45.9271 46.6707 45.8427L48.0215 43.2256C48.0215 43.1412 48.1059 43.1412 48.1059 43.1412L51.0607 42.8035C51.2296 42.8035 51.3984 42.6346 51.3984 42.3814C51.314 42.2969 51.314 42.1281 51.1451 42.1281Z" fill="#FF7917"/>
<path d="M44.2225 39.0044V39.0515L44.2311 39.0978L45.4914 45.8193C45.5168 46.1136 45.7219 46.314 45.8746 46.4094C46.0261 46.5041 46.2806 46.5929 46.5464 46.505C46.688 46.476 46.7924 46.4057 46.848 46.364C46.92 46.31 46.9849 46.2449 47.0221 46.2077C47.0245 46.2053 47.0267 46.203 47.0289 46.2009L47.0847 46.1451L47.1208 46.075L48.3886 43.6187L51.096 43.3093C51.5944 43.2885 51.9049 42.8279 51.9049 42.3814V42.1715L51.7866 42.0532C51.7845 42.049 51.7817 42.0434 51.7777 42.0355C51.769 42.0184 51.7552 41.9915 51.7378 41.9624C51.7034 41.9052 51.6398 41.8128 51.5301 41.7377C51.4636 41.6923 51.3922 41.6611 51.3186 41.6426L45.5364 38.2559C45.359 38.1066 45.1167 38.0201 44.8537 38.0953C44.6331 38.1583 44.4865 38.3114 44.3986 38.4557C44.2215 38.6729 44.2222 38.9031 44.2224 38.9947C44.2225 38.9982 44.2225 39.0014 44.2225 39.0044ZM51.7983 42.0759C51.7983 42.0759 51.7977 42.075 51.7966 42.073C51.7978 42.0748 51.7983 42.0759 51.7983 42.0759Z" stroke="white" stroke-width="1.01307"/>
</g>
<rect x="38.8901" y="10.4233" width="9.86897" height="2.46725" rx="1.23362" fill="url(#paint5_linear_1311_898)"/>
<rect x="38.8901" y="15.0835" width="9.86897" height="2.46725" rx="1.23362" fill="url(#paint6_linear_1311_898)"/>
<path d="M20.3394 13.9728L18.8122 15.8542C18.3148 16.467 18.7508 17.3826 19.54 17.3826H26.6102C27.2536 17.3826 27.7058 16.7493 27.497 16.1408L26.17 12.2738C25.9104 11.5171 24.8832 11.4124 24.4762 12.1011L23.4025 13.9178C23.0905 14.4458 22.3641 14.537 21.9313 14.1025L21.7315 13.902C21.3385 13.5075 20.6904 13.5405 20.3394 13.9728Z" fill="url(#paint7_linear_1311_898)"/>
<path d="M18.7126 33.8375C18.7531 33.7868 18.8165 33.7335 18.9077 33.7233L20.0028 33.6013C20.1396 33.586 20.2258 33.5302 20.3069 33.4288C20.388 33.3274 20.4209 33.2082 20.4056 33.0713C20.3904 32.9345 20.332 32.8255 20.2331 32.7672C20.1317 32.6861 20.0126 32.6532 19.8985 32.6659L18.8035 32.788C18.4613 32.8261 18.2002 32.9707 17.9772 33.2496C17.7745 33.5032 17.6707 33.815 17.7088 34.1572L17.9936 36.7123C18.0318 37.0545 18.1764 37.3156 18.4553 37.5385C18.7088 37.7412 19.0207 37.8451 19.3629 37.8069L20.4579 37.6849C20.5948 37.6696 20.681 37.6138 20.762 37.5124C20.8431 37.411 20.876 37.2918 20.8608 37.1549C20.8455 37.0181 20.7872 36.9091 20.6858 36.828C20.5843 36.7469 20.4652 36.714 20.3511 36.7267L19.2561 36.8488C19.1876 36.8564 19.1167 36.8412 19.0406 36.7804C18.9899 36.7399 18.9366 36.6765 18.9264 36.5852L18.8349 35.764L20.2265 35.6089C20.3634 35.5936 20.4496 35.5378 20.5306 35.4364C20.6117 35.3349 20.6446 35.2158 20.6294 35.0789C20.6141 34.942 20.5558 34.8331 20.4544 34.752C20.3529 34.6709 20.2338 34.638 20.1197 34.6507L18.7281 34.8058L18.6366 33.9845C18.6568 33.9592 18.672 33.8882 18.7126 33.8375Z" fill="white"/>
<path d="M24.8513 33.3847C24.3723 33.4381 24.0225 33.6156 23.7818 33.9427C23.475 33.6767 23.0947 33.5805 22.6156 33.6339C22.1822 33.6822 21.8121 33.8851 21.5486 34.2147C21.2877 34.5672 21.1686 34.95 21.217 35.3834L21.4077 37.0945C21.4229 37.2313 21.4813 37.3403 21.5801 37.3986C21.6816 37.4797 21.8007 37.5126 21.9376 37.4973C22.0745 37.4821 22.1607 37.4263 22.2417 37.3248C22.3228 37.2234 22.3557 37.1043 22.3405 36.9674L22.1498 35.2564C22.1294 35.0739 22.1826 34.9294 22.2814 34.7798C22.3828 34.653 22.5348 34.5667 22.7173 34.5464C22.8998 34.5261 23.0444 34.5792 23.1939 34.6781C23.3207 34.7794 23.407 34.9315 23.4273 35.114L23.618 36.825C23.6333 36.9619 23.6916 37.0708 23.7905 37.1291C23.8919 37.2102 24.0111 37.2431 24.148 37.2279C24.2848 37.2126 24.3938 37.1543 24.4521 37.0554C24.5332 36.954 24.5661 36.8348 24.5508 36.6979L24.3601 34.9869C24.3398 34.8044 24.393 34.6599 24.4918 34.5103C24.5931 34.3835 24.7452 34.2973 24.9277 34.2769C25.1102 34.2566 25.2547 34.3098 25.4043 34.4086C25.5311 34.5099 25.6173 34.662 25.6377 34.8445L25.8284 36.5555C25.8436 36.6924 25.902 36.8014 26.0009 36.8597C26.1023 36.9407 26.2214 36.9736 26.3583 36.9584C26.4952 36.9431 26.6042 36.8848 26.6853 36.7834C26.7663 36.6819 26.7993 36.5628 26.7865 36.4487L26.5958 34.7377C26.5475 34.3043 26.3471 33.9571 26.015 33.6707C25.6904 33.4528 25.2848 33.3364 24.8513 33.3847Z" fill="white"/>
<path d="M29.0035 32.9221C28.4788 32.9806 28.0657 33.2114 27.7414 33.6171C27.417 34.0228 27.2854 34.4994 27.3413 35.0013C27.3973 35.5032 27.6306 35.9391 28.0363 36.2635C28.442 36.5878 28.9186 36.7194 29.4205 36.6635C29.8084 36.6203 30.1404 36.4909 30.3456 36.2601C30.3735 36.3032 30.4268 36.3666 30.4775 36.4071C30.5789 36.4882 30.6981 36.5211 30.835 36.5058C30.9718 36.4906 31.058 36.4348 31.1391 36.3334C31.2202 36.2319 31.2531 36.1128 31.2378 35.9759L31.0802 34.5615C31.0217 34.0368 30.7909 33.6237 30.3852 33.2993C29.982 32.9978 29.5054 32.8662 29.0035 32.9221ZM29.3163 35.7282C29.0653 35.7561 28.827 35.6903 28.6242 35.5281C28.4213 35.366 28.3046 35.148 28.2767 34.8971C28.2487 34.6461 28.3145 34.4078 28.4767 34.205C28.6389 34.0021 28.8568 33.8854 29.1078 33.8575C29.3587 33.8295 29.597 33.8953 29.7999 34.0575C30.0027 34.2196 30.1169 34.4148 30.1474 34.6885C30.1753 34.9395 30.1095 35.1778 29.9473 35.3806C29.7877 35.6063 29.5672 35.7002 29.3163 35.7282Z" fill="white"/>
<path d="M32.1512 32.5709C32.0143 32.5861 31.9053 32.6445 31.8243 32.7459C31.7432 32.8473 31.7103 32.9665 31.7255 33.1033L32.0383 35.9094C32.0535 36.0463 32.1119 36.1553 32.2108 36.2135C32.3122 36.2946 32.4313 36.3275 32.5682 36.3123C32.7051 36.297 32.8141 36.2387 32.8724 36.1398C32.9534 36.0384 32.9863 35.9192 32.9711 35.7823L32.6609 32.9991C32.6456 32.8622 32.5873 32.7532 32.4884 32.695C32.4072 32.5885 32.2881 32.5556 32.1512 32.5709Z" fill="white"/>
<path d="M31.6647 31.5168C31.5836 31.6182 31.5304 31.7627 31.5456 31.8996C31.5609 32.0365 31.6218 32.1683 31.746 32.2468C31.8474 32.3279 31.992 32.3811 32.1288 32.3658C32.2657 32.3506 32.3975 32.2897 32.476 32.1655C32.5799 32.0615 32.6103 31.9195 32.5951 31.7827C32.5798 31.6458 32.5189 31.514 32.3947 31.4354C32.1665 31.253 31.8471 31.2886 31.6647 31.5168Z" fill="white"/>
<path d="M34.2172 31.2089C34.1158 31.1278 33.9966 31.0949 33.8825 31.1076C33.7457 31.1228 33.6595 31.1786 33.5784 31.2801C33.4973 31.3815 33.4644 31.5006 33.4797 31.6375L33.9348 35.7211C33.9501 35.858 34.0084 35.967 34.1073 36.0253C34.2087 36.1063 34.3279 36.1392 34.4648 36.124C34.6016 36.1087 34.6878 36.0529 34.7689 35.9515C34.85 35.8501 34.8829 35.7309 34.8676 35.5941L34.4125 31.5105C34.3998 31.3964 34.3414 31.2874 34.2172 31.2089Z" fill="white"/>
<defs>
<filter id="filter0_d_1311_898" x="0.914651" y="21.4384" width="60.5152" height="43.0901" filterUnits="userSpaceOnUse" color-interpolation-filters="sRGB">
<feFlood flood-opacity="0" result="BackgroundImageFix"/>
<feColorMatrix in="SourceAlpha" type="matrix" values="0 0 0 0 0 0 0 0 0 0 0 0 0 0 0 0 0 0 127 0" result="hardAlpha"/>
<feOffset dy="8.10459"/>
<feGaussianBlur stdDeviation="6.07844"/>
<feComposite in2="hardAlpha" operator="out"/>
<feColorMatrix type="matrix" values="0 0 0 0 0.00791667 0 0 0 0 0.0322459 0 0 0 0 0.0791667 0 0 0 0.3 0"/>
<feBlend mode="normal" in2="BackgroundImageFix" result="effect1_dropShadow_1311_898"/>
<feBlend mode="normal" in="SourceGraphic" in2="effect1_dropShadow_1311_898" result="shape"/>
</filter>
<filter id="filter1_d_1311_898" x="33.5851" y="33.5083" width="28.957" height="29.749" filterUnits="userSpaceOnUse" color-interpolation-filters="sRGB">
<feFlood flood-opacity="0" result="BackgroundImageFix"/>
<feColorMatrix in="SourceAlpha" type="matrix" values="0 0 0 0 0 0 0 0 0 0 0 0 0 0 0 0 0 0 127 0" result="hardAlpha"/>
<feOffset dy="6.07844"/>
<feGaussianBlur stdDeviation="5.06537"/>
<feComposite in2="hardAlpha" operator="out"/>
<feColorMatrix type="matrix" values="0 0 0 0 0.00784314 0 0 0 0 0.0313726 0 0 0 0 0.0784314 0 0 0 0.4 0"/>
<feBlend mode="normal" in2="BackgroundImageFix" result="effect1_dropShadow_1311_898"/>
<feBlend mode="normal" in="SourceGraphic" in2="effect1_dropShadow_1311_898" result="shape"/>
</filter>
<linearGradient id="paint0_linear_1311_898" x1="33.0278" y1="49.9727" x2="33.0278" y2="-0.0374303" gradientUnits="userSpaceOnUse">
<stop stop-color="#095BFF"/>
<stop offset="1" stop-color="#1EB5FE"/>
</linearGradient>
<linearGradient id="paint1_linear_1311_898" x1="27.3357" y1="5.40967" x2="16.2375" y2="22.2942" gradientUnits="userSpaceOnUse">
<stop stop-color="white"/>
<stop offset="1" stop-color="white" stop-opacity="0.76"/>
</linearGradient>
<linearGradient id="paint2_linear_1311_898" x1="39.9928" y1="29.0017" x2="33.908" y2="49.8303" gradientUnits="userSpaceOnUse">
<stop stop-color="white"/>
<stop offset="1" stop-color="white" stop-opacity="0.76"/>
</linearGradient>
<linearGradient id="paint3_linear_1311_898" x1="14.8737" y1="38.8034" x2="20.6494" y2="21.8934" gradientUnits="userSpaceOnUse">
<stop stop-color="#5E6EFF"/>
<stop offset="1" stop-color="#F1F3FE" stop-opacity="0.76"/>
</linearGradient>
<linearGradient id="paint4_linear_1311_898" x1="48.3244" y1="5.48853" x2="37.2263" y2="22.3731" gradientUnits="userSpaceOnUse">
<stop stop-color="white"/>
<stop offset="1" stop-color="white" stop-opacity="0.76"/>
</linearGradient>
<linearGradient id="paint5_linear_1311_898" x1="48.622" y1="10.3284" x2="46.1517" y2="16.9231" gradientUnits="userSpaceOnUse">
<stop stop-color="#FFBB6B"/>
<stop offset="0.0001" stop-color="#FFA740"/>
<stop offset="1" stop-color="#FFA740" stop-opacity="0"/>
</linearGradient>
<linearGradient id="paint6_linear_1311_898" x1="48.622" y1="14.9886" x2="46.1517" y2="21.5832" gradientUnits="userSpaceOnUse">
<stop stop-color="#FFBB6B"/>
<stop offset="0.0001" stop-color="#FFA740"/>
<stop offset="1" stop-color="#FFA740" stop-opacity="0"/>
</linearGradient>
<linearGradient id="paint7_linear_1311_898" x1="25.97" y1="11.9138" x2="23.6127" y2="18.7749" gradientUnits="userSpaceOnUse">
<stop stop-color="#4DB9FF"/>
<stop offset="1" stop-color="#62C7FF"/>
</linearGradient>
</defs>
</svg>
